<svg width="136" height="41" viewBox="0 0 136 41" fill="none" xmlns="http://www.w3.org/2000/svg">
<path d="M54.8254 5.54648C54.8254 6.24243 54.7065 6.85383 54.4686 7.38067C54.2307 7.90426 53.8899 8.30752 53.4462 8.59045C53.0058 8.87014 52.4978 9.00998 51.9224 9.00998C51.3533 9.00998 50.8454 8.87014 50.3985 8.59045C49.9548 8.30752 49.6108 7.90588 49.3665 7.38555C49.1254 6.86521 49.0032 6.26519 49 5.5855V5.18549C49 4.49279 49.1206 3.8814 49.3617 3.3513C49.606 2.82121 49.9484 2.41632 50.3888 2.13664C50.8325 1.8537 51.3405 1.71224 51.9127 1.71224C52.485 1.71224 52.9913 1.85208 53.4317 2.13176C53.8754 2.40819 54.2178 2.8082 54.4589 3.33179C54.7 3.85213 54.8222 4.45865 54.8254 5.15135V5.54648ZM53.6054 5.17574C53.6054 4.38872 53.4575 3.78546 53.1617 3.36594C52.8691 2.94641 52.4528 2.73665 51.9127 2.73665C51.3855 2.73665 50.9723 2.94641 50.6734 3.36594C50.3776 3.78221 50.2265 4.37246 50.2201 5.13671V5.54648C50.2201 6.32698 50.3696 6.93025 50.6685 7.35628C50.9707 7.7823 51.3887 7.99532 51.9224 7.99532C52.4625 7.99532 52.8772 7.78718 53.1665 7.37091C53.4591 6.95464 53.6054 6.3465 53.6054 5.54648V5.17574Z" fill="#1F6599"/>
<path d="M62.3066 8.91241H61.0914V5.75624H57.952V8.91241H56.732V1.8098H57.952V4.76597H61.0914V1.8098H62.3066V8.91241Z" fill="#1F6599"/>
<path d="M70.0531 1.8098V8.91241H68.8378V2.80495H66.6871L66.5617 5.55135C66.5135 6.40991 66.409 7.0766 66.2482 7.5514C66.0907 8.02296 65.8608 8.36768 65.5586 8.58558C65.2564 8.80347 64.8514 8.91241 64.3434 8.91241H64.0348V7.92702L64.2277 7.91239C64.5074 7.88637 64.7228 7.78718 64.8739 7.61482C65.0282 7.44246 65.1439 7.18229 65.2211 6.83431C65.3014 6.48309 65.3577 5.96763 65.3899 5.28793L65.5249 1.8098H70.0531Z" fill="#1F6599"/>
<path d="M76.2323 7.25871H73.5124L72.9434 8.91241H71.6751L74.3274 1.8098H75.4221L78.0792 8.91241H76.8061L76.2323 7.25871ZM73.8548 6.26357H75.8899L74.8723 3.31715L73.8548 6.26357Z" fill="#1F6599"/>
<path d="M83.8726 1.8098H85.0927V8.91241H83.8726V3.85375L80.7911 8.91241H79.5711V1.8098H80.7911V6.87334L83.8726 1.8098ZM83.9112 0C83.9112 0.409766 83.7697 0.741481 83.4868 0.995146C83.2039 1.24881 82.8262 1.37564 82.3536 1.37564C81.881 1.37564 81.5032 1.24881 81.2203 0.995146C80.9374 0.741481 80.7959 0.409766 80.7959 0H81.6736C81.6736 0.214639 81.7331 0.382123 81.852 0.502451C81.9742 0.619527 82.1414 0.678065 82.3536 0.678065C82.5657 0.678065 82.7313 0.619527 82.8503 0.502451C82.9692 0.382123 83.0287 0.214639 83.0287 0H83.9112Z" fill="#1F6599"/>
<path d="M92.8198 8.91241H91.6046V5.75624H88.4652V8.91241H87.2452V1.8098H88.4652V4.76597H91.6046V1.8098H92.8198V8.91241Z" fill="#1F6599"/>
<path d="M99.3528 1.8098V7.92702H101.494V1.8098H102.709V7.92702H104.836V1.8098H106.051V8.91241H98.1279V1.8098H99.3528Z" fill="#1F6599"/>
<path d="M110.272 5.86844H109.443V8.91241H108.228V1.8098H109.443V4.79524H110.113L112.177 1.8098H113.672L111.261 5.20988L113.884 8.91241H112.418L110.272 5.86844Z" fill="#1F6599"/>
<path d="M120.7 5.54648C120.7 6.24243 120.581 6.85383 120.343 7.38067C120.105 7.90426 119.764 8.30752 119.321 8.59045C118.88 8.87014 118.372 9.00998 117.797 9.00998C117.228 9.00998 116.72 8.87014 116.273 8.59045C115.829 8.30752 115.485 7.90588 115.241 7.38555C115 6.86521 114.878 6.26519 114.875 5.5855V5.18549C114.875 4.49279 114.995 3.8814 115.236 3.3513C115.481 2.82121 115.823 2.41632 116.263 2.13664C116.707 1.8537 117.215 1.71224 117.787 1.71224C118.36 1.71224 118.866 1.85208 119.306 2.13176C119.75 2.40819 120.092 2.8082 120.334 3.33179C120.575 3.85213 120.697 4.45865 120.7 5.15135V5.54648ZM119.48 5.17574C119.48 4.38872 119.332 3.78546 119.036 3.36594C118.744 2.94641 118.327 2.73665 117.787 2.73665C117.26 2.73665 116.847 2.94641 116.548 3.36594C116.252 3.78221 116.101 4.37246 116.095 5.13671V5.54648C116.095 6.32698 116.244 6.93025 116.543 7.35628C116.845 7.7823 117.263 7.99532 117.797 7.99532C118.337 7.99532 118.752 7.78718 119.041 7.37091C119.334 6.95464 119.48 6.3465 119.48 5.54648V5.17574Z" fill="#1F6599"/>
<path d="M127.974 1.8098V8.91241H126.759V2.80495H124.608L124.482 5.55135C124.434 6.40991 124.33 7.0766 124.169 7.5514C124.011 8.02296 123.782 8.36768 123.479 8.58558C123.177 8.80347 122.772 8.91241 122.264 8.91241H121.956V7.92702L122.148 7.91239C122.428 7.88637 122.644 7.78718 122.795 7.61482C122.949 7.44246 123.065 7.18229 123.142 6.83431C123.222 6.48309 123.278 5.96763 123.311 5.28793L123.446 1.8098H127.974Z" fill="#1F6599"/>
<path d="M134.153 7.25871H131.433L130.864 8.91241H129.596L132.248 1.8098H133.343L136 8.91241H134.727L134.153 7.25871ZM131.776 6.26357H133.811L132.793 3.31715L131.776 6.26357Z" fill="#1F6599"/>
<path d="M52.0092 21.9137H51.008V25.3967H49.272V16.8736H51.008V20.2863H51.8008L53.8609 16.8736H55.9789L53.3806 20.9069L56.2509 25.3967H54.1792L52.0092 21.9137Z" fill="#1F6599"/>
<path d="M59.8434 22.3937V25.3967H58.1073V16.8736H61.3942C62.0269 16.8736 62.5825 16.9907 63.0608 17.2248C63.5431 17.459 63.9134 17.7926 64.1719 18.2258C64.4304 18.6551 64.5596 19.1449 64.5596 19.6951C64.5596 20.5303 64.2761 21.1898 63.709 21.6737C63.1457 22.1537 62.3645 22.3937 61.3653 22.3937H59.8434ZM59.8434 20.9712H61.3942C61.8533 20.9712 62.2025 20.862 62.4417 20.6434C62.6847 20.4249 62.8062 20.1127 62.8062 19.7068C62.8062 19.2893 62.6847 18.9517 62.4417 18.6941C62.1986 18.4365 61.863 18.3039 61.4347 18.2961H59.8434V20.9712Z" fill="#1F6599"/>
<path d="M72.0119 21.703H68.6787V23.986H72.5906V25.3967H66.9427V16.8736H72.579V18.2961H68.6787V20.3273H72.0119V21.703Z" fill="#1F6599"/>
<path d="M79.551 23.6406H76.5071L75.9284 25.3967H74.0824L77.2189 16.8736H78.8276L81.9815 25.3967H80.1355L79.551 23.6406ZM76.9759 22.2181H79.0823L78.0233 19.0278L76.9759 22.2181Z" fill="#1F6599"/>
<path d="M89.6016 18.2961H87.0206V25.3967H85.2846V18.2961H82.7384V16.8736H89.6016V18.2961Z" fill="#1F6599"/>
<path d="M96.834 16.8736H98.5758V25.3967H96.834V19.7361L93.4602 25.3967H91.7242V16.8736H93.4602V22.5459L96.834 16.8736Z" fill="#1F6599"/>
<path d="M101.266 25.3967V16.8736H104.217C105.239 16.8736 106.015 17.0726 106.543 17.4707C107.072 17.8648 107.336 18.4444 107.336 19.2092C107.336 19.6268 107.23 19.9956 107.018 20.3156C106.805 20.6317 106.51 20.8639 106.132 21.0122C106.564 21.1215 106.904 21.342 107.151 21.6737C107.401 22.0054 107.527 22.4113 107.527 22.8913C107.527 23.7108 107.268 24.3313 106.751 24.7528C106.234 25.1743 105.498 25.3889 104.541 25.3967H101.266ZM103.002 21.6854V23.986H104.489C104.898 23.986 105.216 23.8884 105.444 23.6933C105.675 23.4942 105.791 23.2211 105.791 22.8737C105.791 22.0932 105.392 21.6971 104.593 21.6854H103.002ZM103.002 20.4444H104.286C105.162 20.4288 105.6 20.0756 105.6 19.3849C105.6 18.9985 105.488 18.7214 105.264 18.5536C105.044 18.3819 104.695 18.2961 104.217 18.2961H103.002V20.4444Z" fill="#1F6599"/>
<path d="M116.877 25.3967H115.141V21.7439H111.756V25.3967H110.02V16.8736H111.756V20.3273H115.141V16.8736H116.877V25.3967Z" fill="#1F6599"/>
<path d="M126.505 21.3283C126.505 22.1674 126.359 22.903 126.066 23.5352C125.772 24.1674 125.352 24.6552 124.804 24.9987C124.26 25.3421 123.635 25.5138 122.929 25.5138C122.231 25.5138 121.608 25.344 121.06 25.0045C120.512 24.665 120.088 24.1811 119.787 23.5528C119.486 22.9206 119.334 22.1947 119.33 21.3752V20.9537C119.33 20.1146 119.478 19.3771 119.775 18.7409C120.076 18.1009 120.499 17.6112 121.043 17.2716C121.59 16.9282 122.215 16.7565 122.918 16.7565C123.62 16.7565 124.243 16.9282 124.787 17.2716C125.334 17.6112 125.757 18.1009 126.054 18.7409C126.355 19.3771 126.505 20.1127 126.505 20.9478V21.3283ZM124.746 20.942C124.746 20.0483 124.588 19.3693 124.272 18.9049C123.955 18.4405 123.504 18.2083 122.918 18.2083C122.335 18.2083 121.886 18.4385 121.569 18.899C121.253 19.3556 121.093 20.0268 121.089 20.9127V21.3283C121.089 22.1986 121.247 22.8737 121.563 23.3537C121.88 23.8338 122.335 24.0738 122.929 24.0738C123.512 24.0738 123.959 23.8435 124.272 23.383C124.584 22.9186 124.742 22.2435 124.746 21.3576V20.942Z" fill="#1F6599"/>
<path d="M134.004 16.8736H135.746V25.3967H134.004V19.7361L130.63 25.3967H128.894V16.8736H130.63V22.5459L134.004 16.8736ZM134.34 14.6316C134.34 15.1506 134.154 15.5701 133.784 15.8901C133.418 16.2102 132.935 16.3702 132.337 16.3702C131.739 16.3702 131.255 16.2121 130.885 15.896C130.518 15.5799 130.335 15.1584 130.335 14.6316H131.521C131.521 14.8774 131.593 15.0687 131.735 15.2052C131.882 15.3379 132.083 15.4043 132.337 15.4043C132.588 15.4043 132.785 15.3379 132.928 15.2052C133.07 15.0687 133.142 14.8774 133.142 14.6316H134.34Z" fill="#1F6599"/>
<path d="M56.1236 39.8829H54.3818V32.7823H51.008V39.8829H49.272V31.3598H56.1236V39.8829Z" fill="#1F6599"/>
<path d="M65.2138 37.0438C65.1482 37.9609 64.8126 38.6829 64.2069 39.2097C63.605 39.7366 62.8103 40 61.8227 40C60.7425 40 59.8918 39.6332 59.2707 38.8995C58.6534 38.1619 58.3448 37.1511 58.3448 35.8672V35.3462C58.3448 34.5267 58.4875 33.8047 58.773 33.1803C59.0585 32.5559 59.4655 32.0779 59.9941 31.7461C60.5264 31.4105 61.1437 31.2427 61.8458 31.2427C62.818 31.2427 63.6012 31.5061 64.1953 32.033C64.7894 32.5598 65.1328 33.2994 65.2253 34.2516H63.4893C63.4469 33.7013 63.2945 33.3033 63.0321 33.0574C62.7737 32.8076 62.3782 32.6827 61.8458 32.6827C61.2672 32.6827 60.8331 32.8935 60.5438 33.315C60.2583 33.7325 60.1117 34.3823 60.104 35.2643V35.9082C60.104 36.8292 60.241 37.5024 60.5149 37.9278C60.7926 38.3531 61.2286 38.5658 61.8227 38.5658C62.3589 38.5658 62.7582 38.4429 63.0206 38.197C63.2868 37.9473 63.4391 37.5629 63.4777 37.0438H65.2138Z" fill="#1F6599"/>
<path d="M72.3538 31.3598H74.0956V39.8829H72.3538V34.2223L68.9801 39.8829H67.244V31.3598H68.9801V37.0321L72.3538 31.3598Z" fill="#1F6599"/>
<path d="M79.6674 34.2984L81.2472 31.3598H83.2437L80.7901 35.5862L83.3073 39.8829H81.2877L79.6674 36.8975L78.0471 39.8829H76.0275L78.5448 35.5862L76.0912 31.3598H78.0876L79.6674 34.2984Z" fill="#1F6599"/>
<path d="M91.9057 35.8145C91.9057 36.6536 91.7591 37.3892 91.4659 38.0214C91.1727 38.6536 90.7521 39.1414 90.2043 39.4849C89.6604 39.8283 89.0354 40 88.3294 40C87.6311 40 87.0081 39.8302 86.4602 39.4907C85.9124 39.1512 85.4881 38.6673 85.1871 38.039C84.8862 37.4068 84.7338 36.6809 84.73 35.8614V35.4399C84.73 34.6008 84.8785 33.8633 85.1756 33.2272C85.4765 32.5871 85.8989 32.0974 86.4429 31.7578C86.9907 31.4144 87.6157 31.2427 88.3178 31.2427C89.02 31.2427 89.643 31.4144 90.187 31.7578C90.7348 32.0974 91.1572 32.5871 91.4543 33.2272C91.7552 33.8633 91.9057 34.5989 91.9057 35.434V35.8145ZM90.1465 35.4282C90.1465 34.5345 89.9883 33.8555 89.6719 33.3911C89.3556 32.9267 88.9042 32.6945 88.3178 32.6945C87.7353 32.6945 87.2858 32.9247 86.9695 33.3852C86.6531 33.8418 86.493 34.513 86.4892 35.3989V35.8145C86.4892 36.6848 86.6474 37.3599 86.9637 37.8399C87.28 38.32 87.7353 38.56 88.3294 38.56C88.9119 38.56 89.3595 38.3297 89.6719 37.8692C89.9844 37.4048 90.1426 36.7297 90.1465 35.8438V35.4282Z" fill="#1F6599"/>
<path d="M100.782 31.3598V39.8829H99.0399V32.7823H96.7946L96.6557 35.7911C96.5979 36.8058 96.4705 37.6058 96.2738 38.1912C96.077 38.7727 95.7896 39.2 95.4115 39.4732C95.0335 39.7424 94.5165 39.879 93.8607 39.8829H93.4093V38.4722L93.6986 38.4429C94.1346 38.3843 94.4451 38.1307 94.6303 37.6819C94.8194 37.2292 94.939 36.4253 94.9891 35.2701L95.1338 31.3598H100.782Z" fill="#1F6599"/>
<path d="M110.167 35.8145C110.167 36.6536 110.02 37.3892 109.727 38.0214C109.434 38.6536 109.014 39.1414 108.466 39.4849C107.922 39.8283 107.297 40 106.591 40C105.893 40 105.269 39.8302 104.722 39.4907C104.174 39.1512 103.749 38.6673 103.449 38.039C103.148 37.4068 102.995 36.6809 102.991 35.8614V35.4399C102.991 34.6008 103.14 33.8633 103.437 33.2272C103.738 32.5871 104.16 32.0974 104.704 31.7578C105.252 31.4144 105.877 31.2427 106.579 31.2427C107.281 31.2427 107.904 31.4144 108.448 31.7578C108.996 32.0974 109.419 32.5871 109.716 33.2272C110.017 33.8633 110.167 34.5989 110.167 35.434V35.8145ZM108.408 35.4282C108.408 34.5345 108.25 33.8555 107.933 33.3911C107.617 32.9267 107.166 32.6945 106.579 32.6945C105.997 32.6945 105.547 32.9247 105.231 33.3852C104.915 33.8418 104.754 34.513 104.751 35.3989V35.8145C104.751 36.6848 104.909 37.3599 105.225 37.8399C105.541 38.32 105.997 38.56 106.591 38.56C107.173 38.56 107.621 38.3297 107.933 37.8692C108.246 37.4048 108.404 36.7297 108.408 35.8438V35.4282Z" fill="#1F6599"/>
<path d="M117.903 32.7823H114.124V39.8829H112.388V31.3598H117.903V32.7823Z" fill="#1F6599"/>
<path d="M124.985 31.3598H126.727V39.8829H124.985V34.2223L121.612 39.8829H119.875V31.3598H121.612V37.0321L124.985 31.3598Z" fill="#1F6599"/>
<path d="M134.232 31.3598H135.974V39.8829H134.232V34.2223L130.858 39.8829H129.122V31.3598H130.858V37.0321L134.232 31.3598Z" fill="#1F6599"/>
<circle cx="30" cy="32" r="9" fill="#1F6599"/>
<rect y="24" width="16" height="16" rx="2" fill="#8BAEC8"/>
<rect y="2" width="16" height="16" rx="2" fill="#8BAEC8"/>
<rect x="22" y="2" width="16" height="16" rx="2" fill="#8BAEC8"/>
</svg>
